<svg xmlns="http://www.w3.org/2000/svg" viewBox="0 0 64 64">
  <!-- Gradient -->
  <defs>
    <linearGradient id="bg" x1="0" y1="0" x2="1" y2="1">
      <stop offset="0%" stop-color="#0ea5e9"/>
      <stop offset="50%" stop-color="#0284c7"/>
      <stop offset="100%" stop-color="#0369a1"/>
    </linearGradient>
  </defs>

  <!-- Background -->
  <rect width="64" height="64" rx="12" fill="url(#bg)"/>

  <!-- Optional glossy overlay (same as site effect) -->
  <linearGradient id="shine" x1="0" y1="0" x2="1" y2="1">
    <stop offset="0%" stop-color="rgba(255,255,255,0.3)"/>
    <stop offset="100%" stop-color="rgba(255,255,255,0)"/>
  </linearGradient>
  <rect width="64" height="64" rx="12" fill="url(#shine)"/>

  <!-- Ship Icon -->
  <g transform="translate(8,8) scale(2)" stroke="white" fill="none" stroke-width="2.2" stroke-linecap="round" stroke-linejoin="round">
    <path d="M12 10.189V14"></path>
    <path d="M12 2v3"></path>
    <path d="M19 13V7a2 2 0 0 0-2-2H7a2 2 0 0 0-2 2v6"></path>
    <path d="M19.38 20A11.6 11.6 0 0 0 21 14l-8.188-3.639a2 2 0 0 0-1.624 0L3 14a11.6 11.6 0 0 0 2.81 7.76"></path>
    <path d="M2 21c.6.5 1.2 1 2.5 1 2.5 0 2.5-2 5-2 1.3 0 1.9.5 2.5 1s1.2 1 2.5 1c2.5 0 2.5-2 5-2 1.3 0 1.9.5 2.5 1"></path>
  </g>
</svg>
